Coordinates
datacolumns 24
datarows 42
range 0.72 1.13
inDegrees=yes
Units are S.I. units (second, meters, Newtons, ...)
If the header above contains a line with 'inDegrees', this indicates whether rotational values are in degrees (yes) or radians (no).
endheader
time	pelvis_tilt	pelvis_list	pelvis_rotation	pelvis_tx	pelvis_ty	pelvis_tz	hip_flexion_r	hip_adduction_r	hip_rotation_r	knee_angle_r	ankle_angle_r	subtalar_angle_r	mtp_angle_r	hip_flexion_l	hip_adduction_l	hip_rotation_l	knee_angle_l	ankle_angle_l	subtalar_angle_l	mtp_angle_l	lumbar_extension	lumbar_bending	lumbar_rotation
0.72	12.3495626	3.59539655	-0.79476925	0.15368065	0.56993417	-0.02978943	71.48335121	-3.89328456	6.50414418	-111.0254701	28.99840953	0	0	70.80246609	-0.25742763	-3.52410418	-110.9811736	27.33079458	0	0	-63.61501951	-2.13399187	-2.05979144
0.73	11.85432922	3.58710847	-0.87593717	0.1572083	0.57469125	-0.02972113	71.10185927	-3.80195357	6.51365337	-110.4401513	29.31400087	0	0	70.40387525	-0.19318601	-3.44989718	-110.3867648	27.71418425	0	0	-63.22607217	-2.12830787	-2.1148273
0.74	11.37168477	3.55685246	-0.95708653	0.16086318	0.57959459	-0.02958536	70.67045892	-3.71974964	6.48042064	-109.8183636	29.76585982	0	0	69.94320495	-0.1424663	-3.36297208	-109.774976	28.27039155	0	0	-62.77467158	-2.1410153	-2.17964025
0.75	10.89536802	3.52998642	-1.05064508	0.16449087	0.58470506	-0.02943317	70.22322293	-3.65512216	6.43365724	-109.1513712	30.06725465	0	0	69.47091192	-0.08313259	-3.26013496	-109.1196759	28.63793536	0	0	-62.34321887	-2.16132612	-2.23444822
0.76	10.38369146	3.52099991	-1.13296956	0.16811659	0.59000229	-0.02923592	69.80510732	-3.60684005	6.39829338	-108.4376167	30.20440029	0	0	69.0269009	-0.01641267	-3.17098312	-108.4132503	28.80092508	0	0	-61.952682	-2.19719271	-2.28166692
0.77	9.93743732	3.47798646	-1.2493438	0.17201074	0.59535331	-0.02895884	69.27458509	-3.52803929	6.32175912	-107.7387771	30.63346191	0	0	68.46690974	0.04065252	-3.0287411	-107.7187594	29.32419387	0	0	-61.29800095	-2.25699022	-2.33352864
0.78	9.40962007	3.46484184	-1.34915934	0.17577101	0.60097622	-0.02869238	68.82664292	-3.47695879	6.27403603	-106.9463829	30.75779209	0	0	67.98745205	0.10659097	-2.92143555	-106.9276837	29.46733195	0	0	-60.85615953	-2.31416584	-2.37000266
0.79	8.9882516	3.41200985	-1.4805918	0.17983966	0.60659208	-0.02822962	68.22696298	-3.34974197	6.19825164	-106.1970097	31.18426926	0	0	67.36616068	0.15122861	-2.74681039	-106.1953581	29.98730829	0	0	-60.07163114	-2.41423331	-2.37707308
0.8	8.51976184	3.36063768	-1.62120151	0.18385349	0.61244873	-0.02775204	67.65694086	-3.21935949	6.1274171	-105.3597497	31.46655606	0	0	66.77237226	0.17457222	-2.58413321	-105.3835085	30.32958885	0	0	-59.43327329	-2.50526236	-2.3072354
0.81	8.07523862	3.31083369	-1.75149628	0.18790633	0.61846551	-0.02722947	67.04500794	-3.06774502	6.07907765	-104.5016534	31.69898975	0	0	66.14291792	0.19738189	-2.42136371	-104.5401433	30.61579505	0	0	-58.73557593	-2.60812489	-2.22997427
0.82	7.6438476	3.26368873	-1.89022138	0.19199894	0.624651	-0.02666403	66.3948842	-2.90074976	6.04501886	-103.5995222	31.91159493	0	0	65.47968016	0.21506339	-2.25827261	-103.6610514	30.88309558	0	0	-58.00969146	-2.71522495	-2.14428521
0.83	7.24316923	3.19807154	-2.04869871	0.1961311	0.63101166	-0.02606344	65.69103835	-2.7093304	5.99629557	-102.6508621	32.15061931	0	0	64.76173233	0.18525822	-2.11190356	-102.7524991	31.19320865	0	0	-57.29702543	-2.82534538	-1.96436101
0.84	6.76446981	3.17547983	-2.1422354	0.20016031	0.63751142	-0.02555977	65.05925805	-2.5763232	5.99971129	-101.6270938	32.198728	0	0	64.12609138	0.22158617	-1.98073476	-101.7498161	31.26206804	0	0	-56.65879781	-2.90132667	-1.94520803
0.85	6.50485183	3.09066724	-2.31620335	0.20441599	0.64417084	-0.0248763	64.17362565	-2.34461241	5.96057737	-100.6476434	32.47276779	0	0	63.22807904	0.14222274	-1.84761158	-100.8007893	31.63409944	0	0	-55.81737041	-3.01203271	-1.72001746
0.86	6.39183803	2.91984292	-2.47927515	0.20852906	0.65139101	-0.02420304	63.06776835	-2.07600384	5.86373504	-99.54035905	32.61446668	0	0	62.15408531	-0.00629149	-1.66855973	-99.78540461	31.8551051	0	0	-55.35022127	-3.01434132	-0.69343418
0.87	5.91358011	2.90728221	-2.5421441	0.21262045	0.65817845	-0.02380608	62.40505163	-1.98660899	5.86200361	-98.41903829	32.61361853	0	0	61.49111815	0.01182079	-1.59321802	-98.68046009	31.86370034	0	0	-54.6021561	-3.05318185	-0.73883642
0.88	5.85698658	2.79832	-2.6653845	0.21683437	0.66552341	-0.02325189	61.2321085	-1.79385743	5.82794766	-97.28620371	32.79546915	0	0	60.34160938	-0.08748357	-1.49088687	-97.60254462	32.1200199	0	0	-53.93229318	-3.06715259	-0.27182401
0.89	5.46625361	2.77464027	-2.70851036	0.22098072	0.67251734	-0.02292407	60.45312398	-1.71813986	5.82523749	-96.1108764	32.7752845	0	0	59.57620581	-0.09161104	-1.44357391	-96.44733497	32.1056585	0	0	-53.09113104	-3.07747963	-0.31791379
0.9	5.44292896	2.69573187	-2.76501838	0.22515564	0.68018338	-0.02251558	59.2237425	-1.6337829	5.7723982	-94.88754605	32.88142114	0	0	58.36731859	-0.15936854	-1.39605365	-95.24601449	32.2314615	0	0	-52.56737646	-3.04298254	-0.03933461
0.91	5.11245158	2.67000986	-2.78307758	0.22927587	0.68742558	-0.02227301	58.3527598	-1.58602639	5.77523624	-93.62354556	32.80262134	0	0	57.52742014	-0.16734026	-1.36399963	-94.0228538	32.13945587	0	0	-51.68959416	-3.02273131	-0.09081813
0.92	5.14105974	2.60434389	-2.78811893	0.23338769	0.69537149	-0.02206188	57.03934288	-1.56812812	5.71804104	-92.29403337	32.81888716	0	0	56.26423352	-0.1880372	-1.33484152	-92.73963482	32.13208199	0	0	-51.26947087	-2.94935301	0.11446166
0.93	4.83215696	2.57854072	-2.78035058	0.23747722	0.70278945	-0.02185613	56.13676518	-1.54431683	5.70842096	-90.96862865	32.68976619	0	0	55.38573081	-0.20522415	-1.32615845	-91.41925857	31.96677268	0	0	-50.35834927	-2.91067872	0.03885715
0.94	4.62420049	2.55586294	-2.75965937	0.24153641	0.71048035	-0.02167444	55.09980945	-1.5515952	5.66992971	-89.5810222	32.56435997	0	0	54.38559495	-0.2005755	-1.32339779	-90.05327909	31.79359156	0	0	-49.54934888	-2.84920936	-0.0084859
0.95	4.74912989	2.50230306	-2.69722114	0.24560778	0.71891078	-0.02153424	53.6322083	-1.59716669	5.60836399	-88.09699291	32.49656343	0	0	52.97736925	-0.1869803	-1.29398488	-88.60303431	31.66532554	0	0	-49.29853121	-2.74917622	0.12223903
0.96	4.41346179	2.48304985	-2.66465236	0.24964049	0.72660913	-0.02135385	52.7171009	-1.59532145	5.59179389	-86.6135567	32.27370597	0	0	52.09518002	-0.19759921	-1.30000327	-87.13246197	31.39641271	0	0	-48.32468085	-2.7151593	0.01140332
0.97	4.52976251	2.4475615	-2.57109249	0.2536948	0.73519249	-0.02133523	51.24959436	-1.70451235	5.48883257	-85.05256976	32.12648631	0	0	50.67650273	-0.13303789	-1.26222094	-85.57977972	31.17272422	0	0	-47.94457293	-2.58927032	0.04290849
0.98	4.39441928	2.42085843	-2.50895309	0.25772494	0.74342401	-0.02121005	50.0610904	-1.74299188	5.44163647	-83.44507467	31.88111348	0	0	49.53436443	-0.11258429	-1.24419238	-83.99364593	30.88417766	0	0	-47.21504886	-2.52575011	-0.03258946
0.99	4.23749322	2.40962323	-2.40722702	0.26174045	0.75166325	-0.02114519	48.89636988	-1.81952586	5.38686726	-81.81443922	31.57254097	0	0	48.41033769	-0.04181823	-1.19809053	-82.35653598	30.52896454	0	0	-46.39735411	-2.43577658	-0.12673339
1	4.04909823	2.38898698	-2.33435446	0.26578256	0.76003653	-0.0210362	47.72407479	-1.85949191	5.35380096	-80.08246346	31.25545411	0	0	47.28185437	0.00976466	-1.13962037	-80.6403936	30.16986088	0	0	-45.57569637	-2.37752691	-0.23851667
1.01	3.8724281	2.37993469	-2.24771013	0.26978153	0.76844994	-0.02096235	46.52946775	-1.93375256	5.29214208	-78.29146635	30.90180737	0	0	46.14315678	0.0789206	-1.08621525	-78.89939997	29.78080639	0	0	-44.79501444	-2.30864683	-0.35443163
1.02	3.65145245	2.3633051	-2.16396324	0.27378767	0.77685316	-0.02089294	45.37053537	-1.9765436	5.26663765	-76.45743166	30.50629635	0	0	45.03327101	0.14726779	-1.00801769	-77.09385017	29.3458681	0	0	-43.90492475	-2.25017456	-0.49484408
1.03	3.35222914	2.34668623	-2.10397883	0.27777	0.78510706	-0.02079779	44.29420552	-1.98279664	5.28524384	-74.58243412	30.06335189	0	0	44.00015696	0.21354241	-0.90701865	-75.25239259	28.86289174	0	0	-42.83250432	-2.20872915	-0.65315857
1.04	3.06936829	2.33879755	-2.01993713	0.28173823	0.79344836	-0.02065959	43.1759679	-2.00706005	5.29403838	-72.6439866	29.58469234	0	0	42.93487482	0.29982185	-0.78376262	-73.35132423	28.33787127	0	0	-41.8268983	-2.1559252	-0.8033306
1.05	3.15551134	2.3149358	-1.87398716	0.28571401	0.8024672	-0.02072317	41.60000806	-2.12763254	5.18185672	-70.60639335	29.12487175	0	0	41.42248186	0.44705956	-0.59351938	-71.33375252	27.79545966	0	0	-41.44200678	-2.02803383	-0.94073439
1.06	2.74337434	2.29948888	-1.84524145	0.28961527	0.81051423	-0.02053402	40.61038556	-2.09319856	5.25708567	-68.56464364	28.61348506	0	0	40.48442626	0.4847459	-0.4885842	-69.36640753	27.24725215	0	0	-40.27467122	-2.03324202	-1.12007895
1.07	2.48962568	2.2929488	-1.77673226	0.29349317	0.81877738	-0.02038648	39.43370292	-2.12048624	5.26516993	-66.47951607	27.97428713	0	0	39.35889518	0.58595531	-0.30321831	-67.33601283	26.55919872	0	0	-39.22973979	-1.97983639	-1.28305396
1.08	2.73608065	2.22527985	-1.63762205	0.29743617	0.82785399	-0.02042075	37.62775639	-2.20563982	5.11899511	-64.2622839	27.43195406	0	0	37.64098543	0.6977318	-0.03181732	-65.20137316	25.94863373	0	0	-39.05342621	-1.82400541	-1.4371586
1.09	2.32813087	2.20928644	-1.61552981	0.30123966	0.83561493	-0.02024668	36.61325506	-2.18515746	5.19350164	-62.09079182	26.78748217	0	0	36.68367899	0.74755415	0.13538232	-63.12953049	25.27701604	0	0	-37.87888627	-1.82900324	-1.6099074
1.1	2.5332249	2.14347048	-1.49166993	0.30511541	0.84434302	-0.02027711	34.85733652	-2.27204144	5.02146135	-59.8036664	26.0997047	0	0	35.00807012	0.84878491	0.44766602	-60.94184412	24.54876875	0	0	-37.59432401	-1.66850897	-1.70512463
1.11	2.52499335	2.07559188	-1.42086659	0.30896044	0.85250286	-0.0202686	33.35672037	-2.30501906	4.9368261	-57.51850697	25.35999117	0	0	33.57803519	0.90797051	0.74055288	-58.76005442	23.79535176	0	0	-37.00955771	-1.56735766	-1.81263179
1.12	2.50247533	1.99308246	-1.37013978	0.31282018	0.86038256	-0.02013539	31.88671157	-2.30763079	4.82417065	-55.23350549	24.66652751	0	0	32.14788494	0.90813258	0.99743291	-56.53949655	23.0882968	0	0	-36.41049206	-1.47945598	-1.8915375
1.13	2.19625642	1.96895596	-1.35750653	0.31661016	0.86760047	-0.02014224	30.72245695	-2.3470522	4.82090994	-52.88250804	23.83301755	0	0	31.08828554	0.9394962	1.17868746	-54.41175546	22.30754802	0	0	-35.31321622	-1.46396637	-2.01877732
